<?xml version="1.0" standalone="no"?>
<!DOCTYPE svg PUBLIC "-//W3C//DTD SVG 20010904//EN"
 "http://www.w3.org/TR/2001/REC-SVG-20010904/DTD/svg10.dtd">
<svg version="1.0" xmlns="http://www.w3.org/2000/svg"
 width="512.000000pt" height="512.000000pt" viewBox="0 0 512.000000 512.000000"
 preserveAspectRatio="xMidYMid meet">
<metadata>
Created by potrace 1.14, written by Peter Selinger 2001-2017
</metadata>
<g transform="translate(0.000000,512.000000) scale(0.100000,-0.100000)"
fill="#000000" stroke="none">
<path d="M817 4823 c-257 -48 -455 -239 -519 -501 -17 -69 -19 -3411 -2 -3502
50 -269 248 -468 520 -523 47 -9 448 -12 1755 -11 932 0 1710 4 1729 8 220 43
415 204 491 405 24 64 26 74 37 156 10 72 8 3395 -2 3445 -49 250 -231 446
-481 516 -55 15 -202 17 -1763 18 -1253 1 -1719 -2 -1765 -11z m379 -675 c59
-40 80 -127 48 -195 -54 -113 -222 -122 -282 -14 -39 70 -29 145 28 201 28 28
41 33 95 43 29 5 73 -9 111 -35z m618 22 c52 -19 96 -88 96 -147 -1 -47 -35
-108 -74 -132 -111 -69 -245 3 -248 132 -2 118 110 192 226 147z m226 -1420
c35 -30 74 -63 85 -74 11 -10 30 -25 43 -33 32 -22 30 -26 -33 -97 -5 -6 -35
-40 -65 -76 -30 -36 -57 -67 -60 -70 -4 -4 -144 -169 -197 -231 -14 -16 22
-61 365 -461 17 -20 21 -14 -78 -98 -36 -30 -69 -60 -75 -65 -5 -6 -24 -23
-41 -38 -36 -32 -30 -35 -105 53 -24 29 -49 58 -54 64 -6 6 -35 40 -65 76 -30
36 -57 67 -60 70 -3 3 -30 34 -60 70 -30 36 -57 67 -61 70 -3 3 -35 41 -72 84
-72 85 -92 133 -81 191 8 45 15 54 289 373 188 220 233 267 245 258 8 -6 44
-36 80 -66z m1396 -230 c65 -73 228 -266 239 -284 35 -55 26 -137 -20 -191
-15 -16 -36 -41 -48 -55 -12 -14 -73 -86 -136 -160 -63 -74 -117 -137 -120
-140 -4 -3 -46 -51 -93 -107 l-86 -102 -39 30 c-21 17 -40 34 -43 38 -3 3 -40
35 -82 71 -43 35 -78 68 -78 72 0 4 82 103 182 220 99 117 187 220 194 228 11
13 10 20 -9 40 -12 14 -45 52 -72 85 -28 33 -62 73 -77 90 -43 48 -64 73 -98
115 -17 21 -51 60 -75 87 -25 26 -44 53 -44 58 0 6 54 56 120 112 l121 101
121 -141 c66 -78 131 -153 143 -167z"/>
</g>
</svg>
